<svg width="24" height="24" viewBox="0 0 24 24" fill="none" xmlns="http://www.w3.org/2000/svg">
  <path d="M6 9C6 6.239 8.239 4 11 4C12 4 12.904 4.284 13.656 4.768C14.168 4.284 14.825 4 15.5 4C17.157 4 18.5 5.343 18.5 7C18.5 7.5 18.4 7.96 18.2 8.37C19.283 9.128 20 10.484 20 12V14H4V12C4 10.484 4.717 9.128 5.8 8.37" stroke="#F59E0B" stroke-width="2" stroke-linecap="round"/>
  <path d="M5 14H19V18C19 19.105 18.105 20 17 20H7C5.895 20 5 19.105 5 18V14Z" stroke="#F59E0B" stroke-width="2"/>
  <path d="M8 14V17M12 14V17M16 14V17" stroke="#F59E0B" stroke-width="1.5" stroke-linecap="round"/>
</svg>
