<svg xmlns="http://www.w3.org/2000/svg" viewBox="0 0 400 90">
  <defs>
    <linearGradient id="gs-bg" x1="0%" y1="0%" x2="100%" y2="0%">
      <stop offset="0%" stop-color="#3A1210"/>
      <stop offset="50%" stop-color="#5A1A16"/>
      <stop offset="100%" stop-color="#3A1210"/>
    </linearGradient>
    <linearGradient id="gs-edge" x1="0%" y1="0%" x2="0%" y2="100%">
      <stop offset="0%" stop-color="#E8C06A"/>
      <stop offset="100%" stop-color="#A07828"/>
    </linearGradient>
  </defs>

  <rect x="1" y="1" width="398" height="88" rx="10" fill="url(#gs-bg)" stroke="url(#gs-edge)" stroke-width="2"/>
  <rect x="6" y="6" width="388" height="78" rx="7" fill="none" stroke="#B8423C" stroke-width="1" stroke-dasharray="3 4" opacity="0.6"/>

  <!-- crossed swords motif -->
  <g stroke="#E8C06A" stroke-width="2.4" stroke-linecap="round" fill="none">
    <path d="M28 24l24 24M28 66l24-24M52 48l6 6M46 42l0 0"/>
    <path d="M52 48l24-24M52 48l24 24M76 24l-6 6M76 66l-6-6"/>
  </g>
  <circle cx="52" cy="48" r="4" fill="#B8423C" stroke="#E8C06A" stroke-width="1.2"/>

  <text x="120" y="38" font-family="Georgia, serif" font-size="21" font-weight="700" fill="#F5EBD7" letter-spacing="1">GENEL SEFER</text>
  <text x="120" y="60" font-family="Arial, sans-serif" font-size="12" fill="#E8AFA9">Kalkanlar indi · Tüm beylikler savaşabilir</text>

  <rect x="330" y="30" width="52" height="30" rx="6" fill="#0F1115" stroke="#E8C06A" stroke-width="1.4"/>
  <text x="356" y="49" text-anchor="middle" font-family="'JetBrains Mono', monospace" font-size="13" fill="#E8C06A">72:00</text>
</svg>
