<svg xmlns="http://www.w3.org/2000/svg" viewBox="0 0 24 24" fill="none" stroke="currentColor" stroke-width="1.8" stroke-linecap="round" stroke-linejoin="round">
  <path d="M6 21V11a2 2 0 0 1 2-2h8a2 2 0 0 1 2 2v10"/>
  <path d="M6 21h12"/>
  <path d="M6 15H4a1 1 0 0 1-1-1v-2a1 1 0 0 1 1-1h2"/>
  <path d="M18 15h2a1 1 0 0 0 1-1v-2a1 1 0 0 0-1-1h-2"/>
  <path d="M9 9V6.5"/>
  <path d="M15 9V6.5"/>
  <path d="M7.5 6.5l1.5 2 3-3.5 3 3.5 1.5-2"/>
  <circle cx="12" cy="3" r="1" fill="currentColor"/>
</svg>
