<svg width="24" height="24" viewBox="0 0 24 24" fill="none" xmlns="http://www.w3.org/2000/svg">
  <circle cx="12" cy="12" r="3" stroke="#94A3B8" stroke-width="2"/>
  <path d="M19.4 15C19.1277 15.6171 18.7583 16.1789 18.3 16.67L19.5 18.5L18.5 19.5L16.67 18.3C16.1789 18.7583 15.6171 19.1277 15 19.4V21H13V19.4C12.3829 19.1277 11.8211 18.7583 11.33 18.3L9.5 19.5L8.5 18.5L9.7 16.67C9.24167 16.1789 8.87234 15.6171 8.6 15H7V13H8.6C8.87234 12.3829 9.24167 11.8211 9.7 11.33L8.5 9.5L9.5 8.5L11.33 9.7C11.8211 9.24167 12.3829 8.87234 13 8.6V7H15V8.6C15.6171 8.87234 16.1789 9.24167 16.67 9.7L18.5 8.5L19.5 9.5L18.3 11.33C18.7583 11.8211 19.1277 12.3829 19.4 13H21V15H19.4Z" stroke="#94A3B8" stroke-width="1.5"/>
</svg>
